<svg xmlns="http://www.w3.org/2000/svg" width="720" height="420" viewBox="0 0 720 420">
<rect width="100%" height="100%" fill="#ffffff" />
<text x="360" y="28" text-anchor="middle" font-family="Arial, sans-serif" font-size="20" font-weight="700">Best-of-N Stable Rate</text>
<line x1="72" y1="356" x2="692" y2="356" stroke="#111111" />
<line x1="72" y1="48" x2="72" y2="356" stroke="#111111" />
<line x1="66" y1="356.00" x2="72" y2="356.00" stroke="#333" /><line x1="72" y1="356.00" x2="692" y2="356.00" stroke="#dddddd" stroke-dasharray="2,4" /><text x="62" y="360.00" text-anchor="end" font-size="12">0</text>
<line x1="66" y1="279.00" x2="72" y2="279.00" stroke="#333" /><line x1="72" y1="279.00" x2="692" y2="279.00" stroke="#dddddd" stroke-dasharray="2,4" /><text x="62" y="283.00" text-anchor="end" font-size="12">0.25</text>
<line x1="66" y1="202.00" x2="72" y2="202.00" stroke="#333" /><line x1="72" y1="202.00" x2="692" y2="202.00" stroke="#dddddd" stroke-dasharray="2,4" /><text x="62" y="206.00" text-anchor="end" font-size="12">0.5</text>
<line x1="66" y1="125.00" x2="72" y2="125.00" stroke="#333" /><line x1="72" y1="125.00" x2="692" y2="125.00" stroke="#dddddd" stroke-dasharray="2,4" /><text x="62" y="129.00" text-anchor="end" font-size="12">0.75</text>
<line x1="66" y1="48.00" x2="72" y2="48.00" stroke="#333" /><line x1="72" y1="48.00" x2="692" y2="48.00" stroke="#dddddd" stroke-dasharray="2,4" /><text x="62" y="52.00" text-anchor="end" font-size="12">1</text>
<line x1="72.00" y1="356" x2="72.00" y2="362" stroke="#333" /><text x="72.00" y="380" text-anchor="middle" font-size="12">1</text>
<line x1="113.33" y1="356" x2="113.33" y2="362" stroke="#333" /><text x="113.33" y="380" text-anchor="middle" font-size="12">2</text>
<line x1="196.00" y1="356" x2="196.00" y2="362" stroke="#333" /><text x="196.00" y="380" text-anchor="middle" font-size="12">4</text>
<line x1="361.33" y1="356" x2="361.33" y2="362" stroke="#333" /><text x="361.33" y="380" text-anchor="middle" font-size="12">8</text>
<line x1="692.00" y1="356" x2="692.00" y2="362" stroke="#333" /><text x="692.00" y="380" text-anchor="middle" font-size="12">16</text>
<polyline fill="none" stroke="#0b6bcb" stroke-width="3" points="72.00,48.00 113.33,48.00 196.00,48.00 361.33,48.00 692.00,48.00" />
<circle cx="72.00" cy="48.00" r="4" fill="#111111" /><text x="72.00" y="38.00" text-anchor="middle" font-size="12">1</text>
<circle cx="113.33" cy="48.00" r="4" fill="#111111" /><text x="113.33" y="38.00" text-anchor="middle" font-size="12">1</text>
<circle cx="196.00" cy="48.00" r="4" fill="#111111" /><text x="196.00" y="38.00" text-anchor="middle" font-size="12">1</text>
<circle cx="361.33" cy="48.00" r="4" fill="#111111" /><text x="361.33" y="38.00" text-anchor="middle" font-size="12">1</text>
<circle cx="692.00" cy="48.00" r="4" fill="#111111" /><text x="692.00" y="38.00" text-anchor="middle" font-size="12">1</text>
<text x="382" y="402" text-anchor="middle" font-family="Arial, sans-serif" font-size="14">n</text>
<text transform="translate(18 202) rotate(-90)" text-anchor="middle" font-family="Arial, sans-serif" font-size="14">candidate stable rate</text>
</svg>
